<?xml version="1.0" encoding="UTF-8" standalone="no"?>
<svg
   width="1000px"
   height="1000px"
   viewBox="0 0 1000 1000"
   zoomAndPan="disable"
   version="1.1"
   id="svg22"
   sodipodi:docname="overlay3.svg"
   inkscape:version="1.1.2 (0a00cf5339, 2022-02-04)"
   xmlns:inkscape="http://www.inkscape.org/namespaces/inkscape"
   xmlns:sodipodi="http://sodipodi.sourceforge.net/DTD/sodipodi-0.dtd"
   xmlns="http://www.w3.org/2000/svg"
   xmlns:svg="http://www.w3.org/2000/svg">
  <defs
     id="defs26" />
  <sodipodi:namedview
     id="namedview24"
     pagecolor="#ffffff"
     bordercolor="#666666"
     borderopacity="1.0"
     inkscape:pageshadow="2"
     inkscape:pageopacity="0.0"
     inkscape:pagecheckerboard="0"
     showgrid="false"
     inkscape:zoom="0.42"
     inkscape:cx="-328.57143"
     inkscape:cy="654.7619"
     inkscape:window-width="1920"
     inkscape:window-height="1018"
     inkscape:window-x="252"
     inkscape:window-y="0"
     inkscape:window-maximized="1"
     inkscape:current-layer="svg22" />
  <style
     type="text/css"
     id="style2"><![CDATA[
		.p-4 { fill: rgba(255,255,255,0.16); }
		.p-3 { fill: rgba(255,255,255,0.12); }
		.p-2 { fill: rgba(255,255,255,0.08); }
		.p-1 { fill: rgba(255,255,255,0.04); }
		.p0 { fill: none; }
		.p1 { fill: rgba(0,0,0,0.025); }
		.p2 { fill: rgba(0,0,0,0.05); }
		.p3 { fill: rgba(0,0,0,0.075); }
		.p4 { fill: rgba(0,0,0,0.1); }
    ]]></style>
  <polygon
     class="p-4"
     points="-1125,0 -375,1000 125,1000 -875,0"
     id="polygon4" />
  <polygon
     class="p-3"
     points="-875,0 125,1000 375,1000 -625,0"
     id="polygon6" />
  <polygon
     class="p-2"
     points="-625,0 375,1000 625,1000 -375,0"
     id="polygon8" />
  <polygon
     class="p-1"
     points="875,1000 -125,0 -375,0 625,1000 "
     id="polygon10"
     transform="translate(250)" />
  <polygon
     class="p0"
     points="-125,0 875,1000 1125,1000 125,0"
     id="polygon12" />
  <polygon
     class="p1"
     points="375,0 125,0 1125,1000 1375,1000 "
     id="polygon14"
     transform="matrix(1.4326695,0,0,0.64868338,-412.25106,0)" />
  <polygon
     class="p2"
     points="1625,1000 625,0 375,0 1375,1000 "
     id="polygon16"
     transform="translate(-216.14118,-135.16373)" />
  <polygon
     class="p3"
     points="875,0 625,0 1625,1000 1875,1000 "
     id="polygon18"
     transform="matrix(0.37808268,0,0,1.1045,391.04207,-24.14202)" />
  <polygon
     class="p4"
     points="2125,1000 1125,0 875,0 1875,1000 "
     id="polygon20"
     transform="translate(-297.28074,-100.08872)" />
</svg>
