<?xml version="1.0" encoding="UTF-8" standalone="no"?>
<svg
   width="1000px"
   height="1000px"
   viewBox="0 0 1000 1000"
   zoomAndPan="disable"
   version="1.1"
   id="svg22"
   sodipodi:docname="overlay4.svg"
   inkscape:version="1.1.2 (0a00cf5339, 2022-02-04)"
   xmlns:inkscape="http://www.inkscape.org/namespaces/inkscape"
   xmlns:sodipodi="http://sodipodi.sourceforge.net/DTD/sodipodi-0.dtd"
   xmlns="http://www.w3.org/2000/svg"
   xmlns:svg="http://www.w3.org/2000/svg">
  <defs
     id="defs26" />
  <sodipodi:namedview
     id="namedview24"
     pagecolor="#ffffff"
     bordercolor="#666666"
     borderopacity="1.0"
     inkscape:pageshadow="2"
     inkscape:pageopacity="0.0"
     inkscape:pagecheckerboard="0"
     showgrid="false"
     inkscape:zoom="0.29698485"
     inkscape:cx="336.71751"
     inkscape:cy="498.34192"
     inkscape:window-width="1920"
     inkscape:window-height="1018"
     inkscape:window-x="252"
     inkscape:window-y="0"
     inkscape:window-maximized="1"
     inkscape:current-layer="svg22" />
  <style
     type="text/css"
     id="style2"><![CDATA[
		.p-4 { fill: rgba(255,255,255,0.16); }
		.p-3 { fill: rgba(255,255,255,0.12); }
		.p-2 { fill: rgba(255,255,255,0.08); }
		.p-1 { fill: rgba(255,255,255,0.04); }
		.p0 { fill: none; }
		.p1 { fill: rgba(0,0,0,0.025); }
		.p2 { fill: rgba(0,0,0,0.05); }
		.p3 { fill: rgba(0,0,0,0.075); }
		.p4 { fill: rgba(0,0,0,0.1); }
    ]]></style>
  <polygon
     class="p4"
     points="-875,0 -1125,0 -375,1000 125,1000 "
     id="polygon4"
     transform="matrix(0.7070801,0,0,1.1640083,482.96876,417.75034)" />
  <polygon
     class="p3"
     points="-625,0 -875,0 125,1000 375,1000 "
     id="polygon6"
     transform="matrix(1.1746226,0,0,0.97262732,1208.2138,-840.0021)" />
  <polygon
     class="p2"
     points="-375,0 -625,0 375,1000 625,1000 "
     id="polygon8"
     transform="matrix(0.51552005,0,0,1.1586062,190.56843,162.53864)" />
  <polygon
     class="p1"
     points="-125,0 -375,0 625,1000 875,1000 "
     id="polygon10"
     transform="matrix(0.65908009,0,0,1.1402244,207.38501,0)" />
  <polygon
     class="p0"
     points="-125,0 875,1000 1125,1000 125,0"
     id="polygon12" />
  <polygon
     class="p-1"
     points="1375,1000 375,0 125,0 1125,1000 "
     id="polygon14"
     transform="matrix(0.51792792,0.48052333,-0.27622823,0.90098125,477.6394,-301.3456)" />
  <polygon
     class="p-2"
     points="1375,1000 1625,1000 625,0 375,0 "
     id="polygon16"
     transform="translate(831.91627,-54.627402)" />
  <polygon
     class="p-3"
     points="625,0 1625,1000 1875,1000 875,0 "
     id="polygon18"
     transform="rotate(28.072487,1191.2506,-785.87931)" />
  <polygon
     class="p-4"
     points="875,0 1875,1000 2125,1000 1125,0 "
     id="polygon20"
     transform="rotate(28.072487,1066.2506,-285.87931)" />
</svg>
